<svg xmlns="http://www.w3.org/2000/svg" xmlns:xlink="http://www.w3.org/1999/xlink" id="Layer_1" x="0px" y="0px" viewBox="0 0 1148.4 809.1" style="enable-background:new 0 0 1148.4 809.1;" xml:space="preserve">
<style type="text/css">
	.st0{fill:#0C1633;}
</style>
<g>
	<g transform="scale(2.985983999999999 2.985983999999999)  ">
		<g id="undefined" transform="">
			<g transform="matrix(1 0 0 1 271.88 234.51)">
				<g transform="translate(-114.24274667308543, 27.33080063949412) scale(0.07808800182712607, -0.07808800182712607)">
					<path class="st0" d="M-691.5,1579.3c-12.6-55.9-67.5-68.4-117.7-68.4c-25.1,0-50.2,3.5-75.4,7c-2.3,25.1-3.4,49.1-3.3,74.2       c0.1,67.4,1.4,179.3,76.8,207.8l-1.1,2.3l2.3,0c-21.7,14.9-75.2,104-98,131.5l-378,0.5c31.9-22.9,54.7-83.4,82.1-113.2       c16-17.2,41.1-19.5,63.9-19.5c9.1,0,18.3,0,26.3,0l131.3,1c-2.3-20.6-4.6-42.3-4.7-62.8c-0.1-46.8,1-94.8,6.7-141.6       c2.3-21.7,6.8-44.6,7.9-66.3c-27.4,4.6-55.9,10.4-84.5,10.4c-26.3,0-64-7.9-64-41c-0.1-41.1,55.8-97.2,79.8-130.3       c23.9-32,46.7-75.4,92.4-75.5c54.8-0.1,75.5,59.3,75.5,105c53.7-9.2,106.2-20.7,161-20.8c41.1-0.1,117.7,14.7,117.7,67.2       C-594.6,1450.1-681.2,1564.4-691.5,1579.3z"></path>
				</g>
				<g transform="translate(-81.91431391665525, 27.33080063949412) scale(0.07808800182712607, -0.07808800182712607)">
					<path class="st0" d="M-1065.1,1933.3l-204.4,0.3c30.8-44.6,62.7-89.2,98-131.5l68.5-0.1c-3.5-66.2-3.6-132.5-3.7-198.7       c-0.2-114.2,2-227.3,1.8-341.5c0-30.8-30.9-55.9-60.6-57c30.8-45.7,62.7-91.5,99.2-132.6c46.8,7.9,61.7,37.6,61.8,82.1       c0,24-3.4,49.1-3.3,73.1l1.7,388.3c0.1,54.8,4.7,130.2,65.3,152.9C-980.7,1824.7-1021.7,1880.7-1065.1,1933.3z"></path>
				</g>
				<g transform="translate(-67.23376957315554, 27.33080063949412) scale(0.07808800182712607, -0.07808800182712607)">
					<path class="st0" d="M-732.1,1194.8c-36.6-36.5-68.6-66.1-123.4-66.1c-26.3,0-51.4,6.9-74.2,19.5c-6.8,28.6-12.5,58.3-12.4,88       c0.1,108.5,77.9,200.9,189.9,200.7c6.9,0,13.7,0,20.6-1.2c-4.6-32-16.1-70.8-51.5-70.7c-3.4,0-8,0-12.6,1.2       c43.4-34.3,62.7-90.3,99.2-131.5c3.4-1.1,8-1.2,11.4-1.2c43.4-0.1,52.6,49,52.6,83.3c0.1,73.1-63.8,133.7-104.8,187.4       c-5.7,6.9-11.4,11.4-16,19.4l1.1-1.1l-8,10.3l3.4-4.6c-29.7,28.6-59.3,41.2-100.4,41.3c-42.3,0.1-85.7-21.6-117.7-47.8       c9.2,81.1,139.5,86.6,201.1,86.5c56-0.1,105.1,4.4,105.2,74.1c0.1,40-5.6,78.8-5.5,118.8c-31.9,43.4-58.1,94.9-99.2,131.5       l0-1.1l-1.1,1.1l-460.3,0.6c30.8-44.6,62.7-89.2,98-131.5l368.9-0.5c-0.1-57.1-64-61.6-113.1-61.5       c-65.1,0.1-194.2-6.6-194.3-98c-0.1-58.2,38.7-105.1,71.7-149.7c-27.5-37.7-37.8-85.6-37.9-132.4       c-0.1-99.4,61.4-171.4,118.4-245.7c43.3-57.2,84.4-117.7,164.3-117.9c54.8-0.1,89.1,30.7,125.7,67.2       C-663.7,1109-699.1,1151.4-732.1,1194.8z M-746.5,1514.6l-3.4,3.4L-746.5,1514.6z"></path>
				</g>
				<g transform="translate(-29.829616697962166, 27.33080063949412) scale(0.07808800182712607, -0.07808800182712607)">
					<path class="st0" d="M-970.3,1932.2l-204.4,0.3c30.8-44.6,62.7-89.2,98-131.5l68.5-0.1c-3.5-66.2-3.6-132.5-3.7-198.7       c-0.2-114.2,2-227.3,1.8-341.5c0-30.8-30.9-55.9-60.6-57c30.8-45.7,62.7-91.5,99.2-132.6c46.8,7.9,61.7,37.6,61.8,82.1       c0,24-3.4,49.1-3.3,73.1l1.7,388.3c0.1,54.8,4.7,130.2,65.3,152.9C-885.9,1823.6-927,1879.7-970.3,1932.2z"></path>
				</g>
				<g transform="translate(-15.149072354462461, 27.33080063949412) scale(0.07808800182712607, -0.07808800182712607)">
					<path class="st0" d="M-1967.6,2218.9l45.6-59.4c67.3-88,94.6-145.2,217.9-145.3c93.7-0.1,181.6,42,275.3,41.9       c94.8-0.1,186.1-56.2,244.2-129.4c23.9-30.9,43.3-68.6,73-96c0-1.1,1.1-2.3,2.3-2.3c-1.1,1.1-2.3,1.1-2.3,2.3       c-1.1,2.3-2.3,4.6-3.4,5.7c-43.3,65.2-92.3,128-141.4,189.8c-69.5,86.9-154,162.4-271.6,162.5c-94.8,0.1-182.8-43.2-277.6-43       c-54.8,0.1-109.6,16.1-147.3,57.3C-1957.4,2208.6-1961.9,2214.3-1967.6,2218.9z"></path>
				</g>
				<g transform="translate(-15.149072354462461, 27.33080063949412) scale(0.07808800182712607, -0.07808800182712607)">
					<path class="st0" d="M-337.1,1082.6c-9.2-62.8-49.2-100.4-113.2-100.3c-49.1,0.1-142.7,31-175.8,68.8       c-83.2,94.9-112.8,225.1-192.6,323.5c58.3,18.2,92.6,54.7,116.6,110.6c35.3-45.7,86.6-123.5,151.7-123.5       c54.8-0.1,114.3,51.2,130.3,101.5c-30.8,40-66.1,76.6-98.1,115.5c-19.5-55.9-68.6-87.8-126.9-87.8c-18.3,0-36.5,3.5-52.5,11.5       c12.6,52.5,5.9,105.1,5.9,158.7c0.1,46.8,4.7,122.2,58.4,139.3l-13.7,18.3l0,1.1c-28.5,37.7-54.7,76.6-85.5,112l-413.4,0.6       c35.3-42.3,60.4-91.4,98-131.5l257-0.3c0-32,2.2-65.1,2.2-97.1c-0.1-51.4-12.7-106.2-47-146.1c-17.1,27.4-55.8,89.2-91.2,89.2       c-22.8,0-58.3-13.6-58.3-41c0-34.3,93.5-138.3,116.3-172.6c14.8-21.7,26.2-44.6,38.7-67.4c51.3-93.7,103.7-186.3,165.2-273.2       c75.2-106.3,164.1-242.3,310.3-242.5c66.2-0.1,107.4,36.4,116.6,101.5C-260.7,999.1-302.9,1041.4-337.1,1082.6z M-665.6,1442.8       c-1.1,0-1.1,1.1-1.1,2.3C-666.7,1443.9-666.7,1443.9-665.6,1442.8z"></path>
				</g>
				<g transform="translate(17.804064416584737, 27.33080063949412) scale(0.07808800182712607, -0.07808800182712607)">
					<path class="st0" d="M-571.1,1643.1c-81.1,0.1-162.2,4.8-243.3,4.9c-76.5,0.1-107.4-42.1-107.5-115.2       c-0.1-97.1,71.7-196.5,120.7-276.5c28.5-46.9,65-86.9,96.9-130.3c-45.6,85.7-117.4,173.8-117.3,275.4       c0.1,65.1,28.7,115.3,99.5,115.2c83.4-0.1,165.6-4.8,249-4.9C-503.8,1556.2-535.7,1601.9-571.1,1643.1z M-978.6,1800.1       l507.1-0.7c-5.7,5.7-8,12.6-12.5,19.4c-25.1,40-54.7,77.7-85.5,112l-507.1,0.7c5.7-5.7,9.1-12.6,13.7-19.4       C-1037.9,1873.3-1008.2,1835.5-978.6,1800.1z"></path>
				</g>
				<g transform="translate(43.02648900674646, 27.33080063949412) scale(0.07808800182712607, -0.07808800182712607)">
					<path class="st0" d="M-3886,209.3c33.1-43.4,63.8-89.2,99.2-131.5c-1,70.8,43.6,130.1,98.4,168.9       c75.4,53.6,173.7,70.6,265.1,70.4c263.8-0.4,513.7-151.5,751.1-251.1c255.7-107.7,528.5-182.3,807.2-182.7       c445.4-0.6,839.7,186.2,1054.9,587.9c24,44.5,43.5,93.6,43.6,145c0,35.4-3.3,72-4.4,107.4c-4.4,99.4-5.4,199.9-5.3,299.2       l0.8,608.7c0.1,51.4,13.9,113,66.4,134.7c-38.8,57.2-79.8,112-124.3,164.6l-205.6,0.3c30.8-45.7,66.1-88,99.2-131.5l68.5-0.1       c-3.4-16-3.5-32-3.5-48c-0.2-149.6-1.5-299.2-1.8-448.8c-0.2-148.5-1.5-299.2,6.2-447.7c1.1-30.8,5.6-61.7,5.6-92.5       c-0.1-92.5-55.1-188.4-105.4-263.7c-222-332-600.2-483.4-989.7-482.9c-331.2,0.4-641.7,103.7-939.6,238.8       c-197.5,89.3-402.9,195.8-624.4,196.1C-3666.4,451.1-3885.7,385.1-3886,209.3z"></path>
				</g>
				<g transform="translate(57.08232933562914, 27.33080063949412) scale(0.07808800182712607, -0.07808800182712607)">
					<path class="st0" d="M-455,1706.2c-29.6,41.2-79.9,56.1-129,56.1c-129.1,0.2-266.2-96.7-266.4-234.9       c-0.1-66.2,5.6-76.5,37.5-132.5l-1.1,0c26.2-44.6,59.3-85.7,94.6-123.5c36.5-40,63.9-62.9,121-63       c154.2-0.2,267.5,175.5,283.7,313.7C-347.8,1559.9-428.8,1686.7-455,1706.2z M-397.6,1930l-615.6,0.8       c5.7-5.7,9.1-12.6,13.7-19.4c25.1-38.9,54.7-76.6,84.4-112l615.6-0.8c-5.7,5.7-8,12.6-12.5,19.4       C-337.2,1857.9-366.8,1895.7-397.6,1930z M-701,1341.1c-16,0-33.1,3.5-48,9.2c-2.3,12.6-2.3,25.1-2.2,37.7       c0.2,141.6,128.2,243.1,264.1,242.9c22.8,0,44.5-8.1,67.4-10.4C-446.2,1490.3-556,1340.9-701,1341.1z"></path>
				</g>
				<g transform="translate(88.3956180683067, 27.33080063949412) scale(0.07808800182712607, -0.07808800182712607)">
					<path class="st0" d="M-784.3,2345.7l-1.9-1400.2c29.6-43.4,59.3-96,99.2-131.5l1.9,1402.5c35.3-60.6,56.9-130.3,59.1-199.9       c-3.4-1.1-6.9-4.6-6.9-8c0-4.6,1.1-10.3,6.8-11.4c-4.6-14.8-14.9-29.7-29.7-35.4l29.7-18.3c8,16,13.8,35.4,9.2,53.7       c3.4,1.1,6.9,4.6,6.9,8c0,2.3-1.1,4.6-1.1,6.9l-4.6,3.4c-2.2,78.8-29.5,154.2-69.4,221.7l0.1,45.7       c65-44.6,219.1-148.8,219-234.4c0-3.4,0-5.7-1.2-9.1c-4.6,0-10.3-4.6-10.3-10.3c0-4.6,3.4-9.1,8-10.3       c-5.7-14.8-14.9-28.5-29.7-35.4l28.5-19.5c8,16,13.8,36.5,9.2,54.8l8,8l-3.4,8c1.1,4.6,1.2,9.1,1.2,13.7       c0.1,92.5-159.6,197.8-229.2,247l0.7,494.5c52.5-60.6,77.5-141.7,77.4-221.7c-0.1-79.9-21.9-165.6-71.1-229.5       c125.8,95.8,272,139,429.6,138.8c18.3,0,93.7-0.1,93.6-27.5c-0.1-48-115.4-54.7-115.5-118.6c0-29.7,28.5-43.4,54.8-43.5       c106.2-0.1,241.2,153.9,407.9,153.6c20.6,0,42.3-2.3,62.8-5.8l23.9-35.4l25.2,42.2l-44.5-4.5       C200.4,2544.2,76,2584.3-40.5,2584.5c-9.1,0-19.4-1.1-28.6-1.1c62.9,69.6,168,116.3,261.7,116.1c24,0,46.8-3.5,69.7-8.1       l25.1-34.3l24,42.2l-44.5-5.6c-66.1,68.6-166.6,107.6-261.4,107.7c-66.2,0.1-131.4-17-190.8-44.3       c-3.3,110.8,18.5,182.7-125.4,182.9c-110.8,0.2-291.3-44.1-374.8-118.3c-1.1,26.3-22.8,46.9-49,46.9c-22.8,0-42.3-15.9-48-37.6       c-10.3,1.2-21.7,1.2-32,1.2c-119.9,0.2-227.4-84.2-227.6-209.8C-1042.3,2473.9-892.7,2409.8-784.3,2345.7z M-947.3,2604       c0.1,99.4,74.5,165.5,163.6,193.9l-0.6-437.4C-863,2433.7-947.5,2484.1-947.3,2604z M-814.5,2821.9c10.3,0,20.6,0,30.8-1.2       l0-12.6c-94.8-27.3-173.7-100.3-173.9-204.2c-0.1-97.1,63.7-168,136.7-224c-95.9,56.1-211.1,114.5-211,242.4       C-1031.6,2741.2-927.6,2822.1-814.5,2821.9z M-769.9,2882.4l70.8-0.1c13.7,0,24,10.2,24,24s-10.2,24-24,24l-70.8,0.1       c-13.7,0-24-10.2-24-24S-783.6,2882.4-769.9,2882.4z M-769.8,2939.5l70.8-0.1c-10.2,29.7-22.8,59.4-35.3,89.1       C-745.7,2998.9-758.4,2969.2-769.8,2939.5z"></path>
				</g>
			</g>
		</g>
	</g>
	<g>
		<path class="st0" d="M262,504.2c-2.4,1.6-4.8,3.1-7,4.9c-0.8,0.6-1.4,1.7-1.6,2.7c-0.4,1.8-0.2,3.8-0.6,5.6    c-0.3,1.3-1.2,2.9-2.2,3.3c-1.2,0.4-3,0.1-4.2-0.6c-1.6-0.9-2.7-2.6-4.3-3.6c-0.9-0.6-2.3-1-3.4-0.9c-1.8,0.2-3.5,1.1-5.2,1.2    c-1.4,0-3.4-0.4-4.2-1.4c-0.8-0.9-1-3.2-0.4-4.1c3-4.7,2.4-8.7-0.9-13.1c-2.2-2.9,0-6.3,3.7-6.2c1.8,0.1,3.6,0.2,5.3,0.5    c1.8,0.3,2.9-0.4,3.9-1.7c1-1.4,2.1-2.7,3.3-3.9c2.4-2.5,6.3-1.7,6.6,1.7c0.6,5.7,3.1,9.3,8.8,10.5c0.9,0.2,1.6,1.3,2.5,2    C262,502.1,262,503.2,262,504.2z M245.3,508.2c1-1.5,2.1-3.3,3.1-4.9c-1.2-1.5-2.5-3.1-3.7-4.5c-1.8,0.7-3.8,1.5-5.5,2.2    c0.1,1.9,0.2,4,0.3,5.7C241.6,507.3,243.6,507.8,245.3,508.2z"></path>
		<path class="st0" d="M262,554.8c-2.8,3.3-4.1,3.4-7.6,0.7c-15.2-12-31.9-20.8-51-24.5c-4.7-0.9-9.6-1.3-14.4-1.8    c-2.8-0.3-4.2-1.6-4.1-4.1c0.1-2.3,1.6-3.7,4.3-3.6c14.7,0.6,28.7,4.3,42,10.5c11.2,5.2,21.4,11.8,30.8,19.8    C262,552.8,262,553.8,262,554.8z"></path>
		<path class="st0" d="M119.3,525c1.1-5.9,2-11.4,3.1-16.9c0.4-2,1.4-3.8,2.3-5.6c0.8-1.6,2.2-2.9,3.9-2c1.3,0.7,2.2,2.3,2.9,3.7    c0.3,0.7-0.1,1.8-0.3,2.7c-1.3,5.6-2.6,11.2-3.9,16.9c0.2,0.1,0.4,0.2,0.7,0.3c0.5-0.8,1.1-1.5,1.6-2.3    c15.5-22.6,35.5-39.3,62-47.5c10-3.1,20.3-4.5,30.7-4.8c3.9-0.1,6.3,3.1,4.2,5.8c-0.9,1.2-3,1.8-4.6,2c-7.6,1.1-15.3,1.3-22.7,3    c-22.6,5.2-40.7,17.8-55.3,35.4c-4.4,5.3-8.2,11.1-12.2,16.6c0.2,0.2,0.4,0.5,0.6,0.7c0.8-0.4,1.5-0.7,2.3-1.1    c8.8-4.2,17.8-7.6,27.6-8.8c3.4-0.4,5.2,0.6,5.5,3.2c0.3,2.6-1.4,4.1-4.7,4.5c-10.1,1.1-19.3,5.1-28.6,9.7    c4.7,1.6,9.1,2.9,13.4,4.5c19.7,7.6,36,20.2,49.8,36c15.6,18,26.6,38.6,35.1,60.7c1,2.6,0.2,4.6-2,5.5c-2.3,0.9-4.2,0-5.3-2.9    c-5.9-15.2-13-29.8-22.2-43.3c-12.2-17.9-27.2-33-46.4-43.4c-7.6-4.1-15.5-7.3-24-9.2c-0.6-0.1-1.3-0.2-2.3-0.4    c0.3,0.8,0.4,1.3,0.7,1.7c11.1,19.1,17.4,40,21.7,61.5c1,4.8,1.8,9.7,2.6,14.6c0.6,3.3-0.5,5.2-3.1,5.6c-2.4,0.3-3.9-1.3-4.5-4.4    c-2-9.9-3.8-19.9-6.2-29.7c-4-16-9.6-31.4-18.2-45.5c-0.4-0.7-0.9-1.4-1.6-2.5c-0.7,0.9-1.4,1.6-1.9,2.4    c-7.4,10.3-11.6,22.1-14.8,34.2c-4,14.9-6.5,30.1-7.3,45.5c-0.9,15.1-1.1,30.3-1.6,45.4c-0.1,3.1-1.2,4.6-3.8,4.7    c-2.6,0.1-4-1.3-3.9-4.5c0.5-16.2,0.7-32.4,1.8-48.5c1.2-17.9,4.3-35.4,9.7-52.6c2.8-8.8,6.3-17.2,11.6-25.7    c-1.4,0.5-2.2,0.8-2.9,1.1c-12.8,5.9-22.8,15.1-30.5,26.8c-3.6,5.5-6.5,11.3-9.8,17c-1.6,2.7-4.5,3.3-6.5,1.1    c-1.3-1.4-1.3-2.9-0.5-4.5c9.3-19.3,21.5-36.1,41.3-46.2c0.1-0.1,0.2-0.2,0.3-0.9c-4.7,0.2-9.4,0.3-14,0.8    c-14.9,1.7-28.9,5.9-41.8,13.8C30,570,18,584.6,9.2,602.1c-0.4,0.8-0.7,1.5-1.1,2.3c-1.2,2.2-3,2.9-5.1,1.9    c-2.1-1-2.9-3.1-1.8-5.3c11.9-24.9,29.5-44,55.3-54.7c15.2-6.4,31.2-8.9,47.6-8.7c0.6,0,1.2,0,1.8,0c0,0,0.1-0.1,0.2-0.3    c-0.3-0.2-0.6-0.5-0.9-0.7c-15.8-8.8-32.5-14.3-50.9-13.1c-3.6,0.2-7.2,1.1-10.9,1.5c-3.1,0.4-5.4-1.9-4.3-4.8    c0.4-1.2,2.1-2.5,3.4-2.8c13.3-3.2,26.5-2.3,39.6,1.2c10.3,2.8,19.8,7.1,29,12.4c0.7,0.4,1.5,0.8,2.3,1.3c0.1-0.4,0.2-0.7,0.1-0.9    c-8.2-17.8-19.5-33.1-36.5-43.6c-8.1-5-17-8.1-26.4-9.9c-3.2-0.6-4.4-2.1-3.9-4.7c0.5-2.4,2.3-3.4,5.4-2.9    c14.9,2.7,28.1,8.9,39.7,18.7c11.2,9.4,19.6,21,26.3,33.9C118.5,523.5,118.9,524.2,119.3,525z"></path>
		<path class="st0" d="M91.1,467.9c1.3-3.9-0.9-6.5-4.6-8.4c-1.3-0.7-2.6-1.7-3.8-2.6c-2.6-2.2-2.1-5.7,1.1-6.9    c2.4-0.9,4.8-1.7,7.3-2.3c1.9-0.5,2.8-1.5,3.2-3.4c0.5-2.3,1.1-4.7,2.1-6.8c0.6-1.2,1.9-2.8,3-2.9c1.3-0.2,3.1,0.7,4.1,1.7    c1.8,1.9,3.1,4.3,4.7,6.3c0.6,0.8,1.9,1.4,2.9,1.5c2.7,0.2,5.5-0.2,8.2,0.1c1.3,0.1,3.1,1,3.6,2.1c0.6,1.1,0.3,3-0.4,4.2    c-1.3,2.3-3,4.4-4.7,6.4c-1,1.2-1.1,2.3-0.5,3.7c0.9,2.4,1.9,4.8,2.4,7.2c0.3,1.4,0,3.4-0.9,4.3c-0.8,0.9-2.8,1.2-4.1,0.9    c-2.6-0.5-5.1-1.7-7.8-2.4c-0.9-0.2-2.2-0.1-3,0.4c-2.3,1.5-4.3,3.4-6.6,4.8c-1.2,0.7-3.1,1-4.2,0.5c-1.1-0.5-1.8-2.3-2.2-3.6    C90.8,471.4,91.1,469.9,91.1,467.9z M99,465c3.3-3.4,6.9-3.8,11-1.8c-2.3-4.2-1.6-7.7,1.7-11.1c-4.9,1.1-7.9-1.1-10.1-5    c-0.5,4.9-3.3,7.2-7.9,8.1C98.3,457.1,99.7,460.3,99,465z"></path>
		<path class="st0" d="M201,644.4c-0.4,0.5-0.9,1.9-1.9,2.6c-4.3,3.1-5.8,6.9-3.9,12c0.7,1.8,0.6,3.8-1.2,5.1    c-1.9,1.4-3.8,0.9-5.4-0.3c-4.2-3.3-8.2-2.9-12.3,0.2c-1.5,1.2-3.4,1.7-5.2,0.3c-1.9-1.4-1.8-3.2-1.4-5.3    c1.3-6.6,1.2-6.6-3.6-11.3c-0.3-0.3-0.8-0.5-0.9-0.9c-0.5-1.4-1.6-3.1-1.2-4.3c0.4-1.2,2.2-2.8,3.4-2.7c6,0.1,9.5-2.7,11.3-8.3    c0.4-1.1,2.4-2.5,3.6-2.4c1.3,0,3.3,1.3,3.6,2.5c1.7,5.8,5.6,8,11.4,8.1C199.9,639.7,201.1,641.4,201,644.4z M179,653.2    c2.2,0,4.6,0,6.5,0c0.8-2.3,1.6-4.6,2.3-6.5c-1.8-1.3-3.8-2.8-5.5-4c-1.8,1.3-3.8,2.8-5.5,4C177.5,648.8,178.3,651.1,179,653.2z"></path>
		<path class="st0" d="M7.6,648.7c1-2.9-0.8-4.8-3.5-6.5c-2-1.2-4.6-2.4-4.1-5.5c0.5-3.2,3.3-3.5,5.6-3.9c3.2-0.6,5.1-2.3,5.5-5.6    c0.1-0.7,0.2-1.6,0.7-2.2c1-1.2,2.1-3,3.4-3.2c1.3-0.2,3.5,0.9,4.1,2.1c2.4,4.5,5.7,6.3,10.7,5.4c1.8-0.3,3.3,0.4,4.2,2.2    c0.9,1.8,0.5,3.4-0.8,4.7c-3.7,3.5-4.4,7.3-1.9,11.7c0.9,1.6,0.6,3.3-0.7,4.7c-1.4,1.3-3,1.6-4.7,0.7c-4.2-2.2-7.9-2.2-11.3,1.5    c-1.3,1.4-3.1,2.1-5.1,1.1c-2-1-2.2-2.8-2.1-4.8C7.7,650.4,7.6,649.8,7.6,648.7z M22.1,637.6c-1.6-0.9-3.3-1.9-4.8-2.7    c-1.2,1.3-2.5,2.7-3.7,4c0.8,1.5,1.6,3.3,2.4,4.8c1.9-0.3,3.8-0.5,5.4-0.8C21.6,641.1,21.8,639.3,22.1,637.6z"></path>
		<path class="st0" d="M165.5,452.3c-0.6,0.8-1.2,2.1-2.2,2.9c-9.6,7.2-16.7,16.4-22.3,26.9c-1.5,2.8-3.6,3.6-5.8,2.4    c-2.1-1.2-2.5-3.3-1.1-6c6-11.5,13.7-21.5,24.2-29.3c2.9-2.2,5.8-1.7,6.8,1.3C165.2,451,165.3,451.4,165.5,452.3z"></path>
		<path class="st0" d="M4.4,549c-1.2-1.1-2.6-1.7-3-2.8c-0.4-1.2-0.4-3.1,0.3-4c6.2-7,13.3-12.9,21.5-17.4c2-1.1,3.7-0.1,4.7,1.7    c1.1,2,0.7,3.8-1.2,5.1c-3.4,2.3-6.8,4.5-10,7c-3,2.4-5.7,5.3-8.7,7.9C7,547.5,5.8,548.1,4.4,549z"></path>
		<path class="st0" d="M54.6,614.4c3.6,0,5.3,2.1,4.7,4.8c-1.1,4.8-2.3,9.6-3.6,14.3c-0.6,2.1-2.5,3.2-4.5,2.8    c-1.9-0.4-3.4-2.4-3-4.4c1.1-5,2.3-9.9,3.8-14.8C52.4,615.8,54,614.9,54.6,614.4z"></path>
		<path class="st0" d="M226.2,561.4c-2.2-0.1-3.7-1.8-3.6-4.1c0.1-2.2,1.6-3.6,3.8-3.6c2.1,0,3.7,1.7,3.7,3.8    C230.1,559.7,228.4,561.4,226.2,561.4z"></path>
		<path class="st0" d="M26.6,488.3c2.2,0,3.7,1.5,3.7,3.7c0.1,2.3-1.5,4-3.7,4.1c-2.1,0-3.9-1.8-3.8-4    C22.9,490,24.6,488.4,26.6,488.3z"></path>
		<path class="st0" d="M120.7,633.7c0.1-2.2,1.7-3.8,3.7-3.7c2.1,0,3.8,1.9,3.7,4.1c-0.1,2.1-1.7,3.7-3.8,3.7    C122.2,637.7,120.7,636,120.7,633.7z"></path>
		<path class="st0" d="M55.7,668.5c0,2.3-1.6,4-3.8,4c-2,0-3.7-1.7-3.7-3.8c0-2.2,1.7-4,3.8-3.9C54.2,664.8,55.7,666.3,55.7,668.5z"></path>
		<path class="st0" d="M249.1,608.7c0.1,2.2-1.4,3.8-3.5,3.9c-2.2,0.1-3.9-1.5-4-3.7c-0.1-2.2,1.6-3.9,3.8-3.9    C247.5,605,249,606.5,249.1,608.7z"></path>
		<path class="st0" d="M192.1,460.2c-2.2,0-3.7-1.4-3.7-3.6c-0.1-2.3,1.5-4,3.6-4.1c2.1,0,3.6,1.5,3.7,3.7    C195.8,458.6,194.3,460.2,192.1,460.2z"></path>
	</g>
	<g>
		<path class="st0" d="M492.5,790.2c-0.1-0.9-0.2-1.8-0.2-2.7c0-20.8,0.1-41.6,0-62.3c0-1.9,0.7-3.1,1.9-4.5    c10.4-12.5,23.7-21.7,36.3-31.7c7.8-6.2,15.6-12.4,23.7-18.3c2.4-1.8,5.5-2.7,8.5-3.4c2.3-0.5,3.3,0.8,2.6,3.1    c-0.7,2.1-1.8,4.3-3.2,6c-10.5,13.1-21.1,26-31.7,39c-1.5,1.8-2.3,3.7-0.9,5.8c1.4,2.2,3.5,2.2,5.9,1.5c9.5-2.9,19.1-5.7,28.5-8.7    c1.6-0.5,3.1-1.5,4.2-2.6c5.5-5.7,10.8-11.6,16.4-17.3c2.7-2.7,4.2-5.6,4.8-9.3c2.2-13,4.6-26,7-39c0.1-0.7,0.3-1.5,0.7-2.1    c0.9-1.5,2.1-2.9,4.1-2.5c2.1,0.4,3.1,2.1,3,4c-0.1,3.1-0.6,6.1-1.2,9.2c-2.4,14.1-4.9,28.1-7.4,42.2c-0.2,1-0.7,2-1.4,2.8    c-10.9,11.7-21.8,23.3-32.8,34.9c-0.8,0.9-1.9,1.6-2.9,2.1c-10.8,5.7-21.5,11.3-32.4,16.8c-2.4,1.2-3.4,2.9-3.4,5.6    c0.1,9.6,0,19.1,0,28.7c0,1-0.2,1.9-0.3,2.9C512.5,790.2,502.5,790.2,492.5,790.2z"></path>
		<path class="st0" d="M453.7,790.1c0-7.6-0.1-15.2-0.1-22.8c0-2.9-0.1-5.7,0.1-8.6c0.1-2.8-1.1-4.6-3.6-5.8    c-10.4-5.4-20.9-10.9-31.2-16.4c-1.8-1-3.6-2.3-5-3.8c-10.5-11.1-21-22.2-31.3-33.5c-1.3-1.5-1.8-3.9-2.2-6    c-2.7-15.2-5.3-30.4-7.9-45.6c-0.1-0.6-0.2-1.3-0.2-2c0-2.6,1.5-4.7,3.5-4.9c1.9-0.1,3.9,1.8,4.4,4.2c2.4,13.6,4.9,27.1,7.3,40.7    c0.5,2.7,1.4,4.9,3.4,6.9c5.8,6.1,11.4,12.4,17.3,18.4c1.1,1.2,2.7,2.2,4.2,2.7c9.5,3,19,5.8,28.5,8.8c2.3,0.7,4.4,0.8,5.9-1.4    c1.5-2.2,0.6-4.1-0.9-6c-10.6-13-21.2-26-31.6-39.1c-1.3-1.7-2.4-3.7-3-5.8c-0.8-2.4,0.5-3.8,3-3.2c2.8,0.8,5.8,1.7,8,3.4    c15.8,12.2,31.6,24.4,47,37c5.2,4.3,9.4,9.7,14.1,14.7c0.4,0.5,0.6,1.3,0.6,2c0,21.7,0,43.3-0.1,65c0,0.3-0.1,0.6-0.2,1    C473.7,790.1,463.7,790.1,453.7,790.1z"></path>
		<path class="st0" d="M562.3,630.9c-18.7,24.7-43,38.1-73.7,38.2c-31,0.1-55.6-13.5-74.5-38.4c6.1-0.7,11.8-1.3,17.4-2    c18.1-2.2,35.9-6,53.4-11.1c2.4-0.7,4.5-0.7,6.9,0c18.1,5.4,36.6,9.1,55.3,11.5c4.5,0.6,9.1,0.9,13.7,1.4    C561.1,630.6,561.5,630.7,562.3,630.9z"></path>
		<path class="st0" d="M403.1,609c24.7-1.2,48.4-4.8,72.1-10.8c-0.8,4.7-0.2,8.9,3,12.8c-7.1,1.7-13.9,3.6-20.8,4.8    c-13.9,2.3-27.9,4.2-41.9,6.2c-6.4,0.9-6.5,0.8-9.2-5.2C405.2,614.3,404.3,611.8,403.1,609z"></path>
		<path class="st0" d="M573.7,609.2c-2,4.4-3.8,8.3-5.7,12.2c-0.3,0.6-1.6,1.1-2.3,1c-12.5-1.5-25-2.8-37.4-4.8    c-9.2-1.5-18.1-4-27.2-6.1c-0.7-0.2-1.4-0.4-2.3-0.7c3-3.7,3.6-7.9,2.8-12.6C525.2,604.3,548.9,608.1,573.7,609.2z"></path>
		<path class="st0" d="M504.3,590.2c2.3-3,4.4-5.9,6.6-8.7c0.3-0.4,1.2-0.8,1.8-0.7c16.8,3.2,33.3,7.2,48.7,15    c2.3,1.2,4.5,2.6,6.6,4.2C546.3,599.1,525.1,595.5,504.3,590.2z"></path>
		<path class="st0" d="M466,580.2c1.2,2,2,3.8,3.2,5.3c1.1,1.5,2.5,2.9,4,4.5c-21,5.4-42.1,8.9-63.6,9.9    C426.9,589,446.2,584,466,580.2z"></path>
		<path class="st0" d="M488.1,538.9c1.6,8.9,7,15.2,12.2,21.6c1.5,1.9,2.9,4,3.9,6.2c2,4.2,1,8.2-1.7,11.9c0.2-5.5-2.9-9.6-6.2-13.4    c-2.4-2.8-3.9-6-4.4-9.6c-0.4-2.6-1.4-4.8-4.2-5.4c-2.7-0.6-4.5,0.9-5.9,3c-2.6,3.9-5.3,7.8-7.9,11.7    C473.9,560.9,482.1,545.7,488.1,538.9z"></path>
		<path class="st0" d="M484.8,563.5c2.4,3.3,4.6,6.3,6.8,9.3c2.7,3.6,2.8,6.3,0.5,9.1c-2.1,2.5-7.2,3.2-10.2,1.5    c-2.2-1.3-3.5-4.4-3-7.5C479.7,571.1,482.4,567.3,484.8,563.5z"></path>
		<path class="st0" d="M488.3,607.1c-2.9,0-5.1-2.3-5.1-5.1c0-2.8,2.4-5.1,5.2-5.1c2.7,0,5.1,2.4,5.1,5.2    C493.4,604.9,491.2,607.1,488.3,607.1z"></path>
	</g>
	<g>
		<path class="st0" d="M534.2,172.6c-9.5-2-18.8-3.3-27.9-5.9c-17.8-5-33.3-13.7-43-30.4c-0.2-0.4-0.3-0.8-0.5-1.3    c5.8,3.3,11.2,6.7,17,9.7c12.7,6.5,26.4,9.2,40.4,11.1c15.1,2.1,30.4,3.7,45.3,6.7c21.2,4.1,33.6,18.7,38.5,39    c0.8,3.3,1.4,6.6,1.7,10.1c-6.7-12.2-16.2-21.2-29.4-27.4c0.3,10.5-3.5,18.5-12.5,23.4c-5.8,3.2-12,3.4-18,1.4    C531.1,204.1,526.6,189.9,534.2,172.6z M562,197.7c-7.6-2-14.6-3.8-22.2-5.7C543.3,201,554.7,203.8,562,197.7z M545.6,179.6    c-2.1,3.2-4.1,5-4.3,6.9c-0.1,1.3,2.3,3.8,3.8,4c2.8,0.4,5.3-1.4,4.8-4.6C549.7,184.1,547.7,182.6,545.6,179.6z"></path>
		<path class="st0" d="M797.3,135.4c-6.6,13.2-17.2,22.2-30.7,27c-13,4.6-26.6,7.6-40.2,11.5c5.8,9.8,5.9,20.1-2.4,29.2    c-6.6,7.2-15.2,9.1-24.2,6c-11.1-3.8-16.1-12.4-15.7-24.7c-13.2,6-22.7,14.8-29.1,27.7c-0.7-5.3,2.7-17.8,6.3-24.5    c8.4-15.7,21.8-23.7,39.2-26c17.9-2.3,35.9-4.3,53.7-7.6C769.7,151,784.5,145.4,797.3,135.4z M715.3,192.4c1-0.5,2.1-0.7,2.9-1.4    c2.3-2.1,3.3-4.5,0.7-7.2c-2.4-2.5-5.7-2.6-7.6,0c-2,2.7-1.4,5.2,1.3,7.1c0.9,0.6,1.9,1,2.9,1.5c-5.9,2-11.8,4-18,6.1    c4.6,3.2,9.7,4.2,15,2c3.6-1.5,7.7-3.3,8.2-8.3C718.6,192.3,717,192.3,715.3,192.4z"></path>
		<path class="st0" d="M817.9,96.1c-14.5,0.8-28.3,1.2-42,2.4c-24.4,2.2-47.5,8.8-68.4,22.3c-23.6,15.2-39.6,36.5-52,61.3    c-9.4,18.9-12.8,39.2-15.3,59.8c-1,8.2-1.6,16.5-3.1,24.7c0.5-7.2,0.4-14.5,1.4-21.6c2.8-19.6,4.8-39.3,9.4-58.5    c9.5-39.8,32.4-69.5,70.5-86.3c18.4-8.1,37.9-11,57.9-10.4C790.2,90.2,803.8,91.9,817.9,96.1z"></path>
		<path class="st0" d="M442.8,95.5c14.1-4.2,28.2-5.9,42.3-6.2c28.5-0.5,55.2,6.2,78.7,22.8c21.2,15,35.6,35.2,44.1,59.6    c7.7,22.4,10.5,45.7,11.9,69.1c0.5,9.4,0.1,18.8,0,28.2c0.4,0,0.8-0.1,1.2-0.1c-1.6-15.8-2.9-31.7-4.9-47.5    c-4.2-33.1-19.5-60.9-42.5-84.4c-15.6-15.9-34.6-26.4-56.1-32.8c-21.9-6.5-44.4-7.7-67-8.2c-2.2-0.1-4.3,0-6.5,0    C443.8,96.1,443.6,95.9,442.8,95.5z"></path>
		<path class="st0" d="M615.8,100c0.2,11.5,3.4,21.4,10.2,30.1c-7.9-4-14-9.9-18.7-17.4c-8.1-12.8-5.4-25.8-1.5-39.2    c5-17.4,12-34.5,12.9-52.9c0.3-7,0.1-14.1,0.1-20.7c13.7,20.2,8.4,42.1,2.1,64.5c9-0.8,17.1,1,21.1,9.2c2,4.1,2.7,9.7,1.9,14.2    C642,98,631.3,105.8,615.8,100z M634,74.7c-1.1,6.6-2,12.1-3,18.3C637.6,88.6,638.8,82,634,74.7z M633.8,77.7    c-2.4-1.8-3.9-3.7-5.3-3.7c-1.4,0.1-2.7,2.2-4.1,3.4c1.3,1.3,2.4,3.6,3.8,3.7C629.6,81.3,631.2,79.4,633.8,77.7z"></path>
		<path class="st0" d="M766.2,168.2c-0.9,11.3-4.4,21.4-10,30.8c-8.6,14.2-20.6,24.2-37.3,27.3c-10.5,2-21.1,1.6-31.3-0.7    c-10-2.2-19.7-5.6-29.6-8.5c0.1-0.4,0.2-0.9,0.3-1.3c8.8,1.3,17.6,3,26.5,3.9c13,1.3,26,1.9,38.6-2.3c13-4.4,22.5-13.3,29.7-24.6    C757.9,185.1,761.6,176.8,766.2,168.2z"></path>
		<path class="st0" d="M601.9,215.5c-11.4,6.1-23.6,9.5-36.3,11c-9.7,1.1-19.4,1.1-29-1.6c-14.6-4.2-25-13.7-32.6-26.4    c-5.6-9.3-9-19.5-9.3-30.5c3,6.3,5.5,12.9,9,18.9c9,15.6,20.8,28,39.4,31.7c12.7,2.6,25.6,1.9,38.3,0.1    C588.3,217.7,595.1,216.6,601.9,215.5z"></path>
		<path class="st0" d="M660.1,322.7c11,6.9,22.8,8.5,35,4.5c11.1-3.6,19.2-11.1,23.7-21.9c6.6-15.9,2.1-37.3-15.8-48.1    c-18.9-11.3-39.6-5.7-55.5,15.6c0.9-7.3,11.7-18.5,23.7-21.8c20.1-5.5,36,1,48,17.8c3.8-5.4,7.9-7.3,11.8-5.3c3.6,1.8,4.8,5.2,4,9    c-1,4.6-4.6,6.4-11.3,5.8c2.6,25.3-4.6,41.2-22.5,49.3C687.3,333.9,668.6,331.9,660.1,322.7z"></path>
		<path class="st0" d="M601.7,125.6c13.9,22.7,43.5,22.4,56.6,0.8c0.6,12.9-11.7,25.7-26.9,26.4    C617.9,153.4,603.5,144.3,601.7,125.6z"></path>
		<path class="st0" d="M631,33.2c21.6,10.6,38.2,39.5,23.5,66.2c-2.8,5.1-5.7,10.3-9.2,14.9c-3.7,4.9-8.1,9.2-12.2,13.8    c-0.3-0.2-0.6-0.5-1-0.7c3.2-5.1,6.5-10.2,9.6-15.4c5.7-9.6,10.9-19.4,11.9-30.8c1.3-15.3-5.1-27.9-14.6-39.2    C636.6,39.1,634,36.4,631,33.2z"></path>
		<path class="st0" d="M594.6,273.9c-4.8,11.2-4.4,15.3,2.4,20.3c2.6,1.9,6,3.4,9.2,3.9c5.6,0.9,10.2,3.3,13.9,7.5    c0.4,0.5,0.8,0.9,1.3,1.4c7,7.1,10.3,7.1,17.2-0.2c4.4-4.7,9.2-7.8,15.8-8.8c3.6-0.5,7.2-2.7,10.1-5.1c5.2-4.2,5.7-8.9,2.7-14.9    c-0.5-1.1-1-2.1-1.9-3.9c10.4,9.6,5.1,19.5-2.1,24.6c-0.9,0.6-1.9,1.2-2.9,1.4c-9.1,2.3-16.3,7.2-22.7,14.1    c-4.5,4.7-12.2,3.7-16.6-1.3c-5.2-5.8-10.9-10.1-18.7-12c-3.2-0.8-6.4-3.1-8.7-5.6C586.9,288.6,587.3,281.3,594.6,273.9z"></path>
		<path class="st0" d="M636.8,170c-0.1,4.4-3.1,7.4-7.6,7.4c-4.3,0-8.2-3.7-8.1-7.7c0.1-3.9,4.4-8,8.2-8    C633.3,161.8,636.9,165.7,636.8,170z"></path>
		<path class="st0" d="M715.3,192.4c1.7-0.1,3.3-0.2,5.3-0.3c-0.5,5.1-4.6,6.9-8.2,8.3c-5.3,2.1-10.4,1.2-15-2    c6.2-2.1,12.1-4.1,18-6.1L715.3,192.4z"></path>
		<path class="st0" d="M634,74.7c4.8,7.3,3.6,13.9-3,18.3C632,86.8,632.9,81.4,634,74.7z"></path>
	</g>
	<g>
		<path class="st0" d="M835.8,772.2c-3.1-2.6-2.7-5,1.1-6.7c6.1-2.7,11.9-5.9,16.8-10.5c2-1.8,3.7-4,5.1-6.3    c2.1-3.4,1.8-7.1-0.2-10.4c-2.8-4.6-7-7.2-12.4-8.1c0.2,3,0.4,5.8,0.6,8.7c0.1,1.8,0.3,3.6,0.3,5.4c0,2.7-2,4.2-4.6,3.1    c-4.8-1.9-9.6-3.9-14.3-6c-2.8-1.2-3.2-3.8-0.9-5.9c1.8-1.6,3.7-3.2,5.5-4.9c0,0,0-0.1,0.2-0.5c-10.4,1.6-20.4,4-30.5,7.5    c0.6,0.7,1,1.2,1.4,1.7c3,3.3,6,6.6,9,9.9c2.3,2.6,1.6,5.1-1.7,6c-5.6,1.6-11.2,3.1-16.9,4.7c-3.5,1-5.4-0.7-4.7-4.4    c0.9-4.8,1.8-9.6,2.8-14.6c-6.1,1.8-12,3.6-17.9,5.3c-10.8,3.1-21.7,5.3-33,4.5c-7.9-0.6-15.2-3.1-19.8-10.2    c-1.3-1.9-1.9-4.3-2.8-6.5c0-2.3,0-4.5,0-6.8c3-11.4,12.8-13.6,22.5-16.1c-0.6-0.5-1.1-0.9-1.5-1.3c-3-2.3-6.1-4.5-9-6.9    c-2.4-1.9-2.1-4.5,0.6-5.9c5.4-2.7,10.8-5.4,16.2-8.1c2.9-1.4,5.2,0.1,5.2,3.3c0,4.3,0,8.6-0.1,13c0,1.2,0,2.5,0,3.9    c3-0.5,5.7-1,8.4-1.5c8-1.6,16-3.5,23.2-7.6c0.8-0.5,1.7-1.5,1.9-2.4c6.3-27.7,12.4-55.4,18.6-83.1c3.2-14.5,6.5-29,9.7-43.5    c0.6-2.7,2-3.7,4.5-3.3c15.5,2.6,30.9,5.2,46.4,7.7c14,2.3,28,4.7,42,7c2.9,0.5,3.6,1.3,4,4.3c0.9,7.4,2,14.9,3,22.3    c1.4,10.3,2.8,20.7,4.1,31c1.5,11.3,3,22.6,4.5,34c0.6,4.1-0.1,5.1-4.1,5.9c-21.2,4-42.4,8-63.6,12c-18.6,3.5-37.2,7.1-55.7,10.6    c-5.3,1-10.7,1.9-15.4,4.9c-2,1.3-4.5,2.1-6.8,2.7c-6.5,1.8-13.1,3.5-19.8,5.2c0.5,0.4,1.2,1,1.8,1.5c2.9,2.3,5.9,4.6,8.8,6.9    c2.7,2.1,2.3,4.8-0.8,6.2c-5.3,2.4-10.6,4.8-16,7.2c-3.1,1.4-5.1,0-5.2-3.3c-0.1-4.9-0.1-9.7-0.1-14.6c0-0.7,0-1.4,0-2.2    c-5.6,1-10.9,1.9-15.7,4.7c-4.1,2.4-5.9,6.3-5,11c1.1,6.1,5.3,9.1,10.9,10.6c7,1.9,14,1.7,21,0.2c9-1.9,17.9-4.4,26.8-6.8    c2.2-0.6,4.4-1.4,6.8-2.1c-3.5-4-6.8-7.7-10.1-11.4c-2.6-3-1.9-5.4,1.9-6.4c5.4-1.5,10.7-2.9,16.1-4.4c4-1.1,5.9,0.7,5,4.8    c-0.7,3.6-1.5,7.1-2.2,10.7c-0.2,1.1-0.4,2.3-0.6,3.6c12.7-3.9,25-7.6,38.2-8.2c-0.3-4.7-0.7-9.2-1-13.6c-0.2-3.6,1.8-5.1,5.1-3.7    c4.2,1.7,8.5,3.5,12.7,5.2c4.2,1.7,4.6,4,1.2,7c-2.3,2-4.6,4.1-6.8,6c2.8,1.6,5.6,2.8,8,4.6c9.7,7.3,11,18.7,2.9,27.8    c-2.5,2.9-5.5,5.5-8.6,7.6c-4.6,3-9.7,5.5-14.5,8.2C837.4,772.2,836.6,772.2,835.8,772.2z M799.5,695.5c0.1,0.2,0.1,0.4,0.2,0.5    c37.8-7.2,75.7-14.4,113.9-21.6c-15-15.5-29.8-30.8-44.7-46.1C845.7,650.8,822.6,673.2,799.5,695.5z M819.8,577.5    c-8.5,38.1-17,75.8-25.5,114.1c23.6-22.9,46.9-45.4,70.2-68C849.6,608.3,834.8,593,819.8,577.5z M869.1,619.2    c10.6-10.3,21.2-20.5,32.1-31.1c-24.8-4.1-49.2-8.2-74.1-12.4C841.3,590.4,855.1,604.7,869.1,619.2z M873.6,623.8    c13.9,14.4,27.6,28.6,41.4,42.8c0.2-0.1,0.3-0.1,0.5-0.2c-3.2-24.4-6.5-48.8-9.8-73.7C894.8,603.3,884.3,613.5,873.6,623.8z     M796.6,719.6c-2.9,0.8-5.5,1.5-8.3,2.3c2.1,2.4,4.2,4.7,6.4,7.3C795.3,725.9,795.9,722.9,796.6,719.6z M752.8,719.9    c0,3.3,0,6.2,0,9.5c2.6-1.2,5.1-2.3,7.8-3.5C758,723.9,755.5,722,752.8,719.9z M796.7,752.6c2.8-0.7,5.4-1.4,8.4-2.2    c-2.2-2.4-4.2-4.6-6.5-7.2C797.9,746.5,797.3,749.4,796.7,752.6z M738.5,700.8c2.5,1.9,4.9,3.7,7.5,5.7c0-3.3,0-6.2,0-9.5    C743.5,698.3,741.1,699.5,738.5,700.8z M840.3,739.5c-0.1-2.1-0.3-4-0.4-6.3c-1.7,1.5-3.1,2.7-4.8,4.2    C837,738.1,838.5,738.7,840.3,739.5z M844.9,713.5c0.2,2.2,0.3,4,0.5,6.3c1.7-1.5,3.1-2.7,4.7-4.1    C848.4,714.9,846.8,714.3,844.9,713.5z"></path>
		<path class="st0" d="M824.7,593.7c-1.4,0.1-2.3,1.2-2.7,3c-2.8,11.9-5.6,23.8-8.4,35.6c-0.3,1.4-0.6,2.7-0.9,4.1    c-0.5,2.1,0.4,3.7,2.2,4.3c1.7,0.5,3.5-0.6,4-2.7c1.5-6.3,3-12.6,4.5-19c1.6-6.9,3.3-13.8,4.9-20.7    C828.9,595.6,827.6,593.6,824.7,593.7z"></path>
		<path class="st0" d="M812.2,645.4c-0.5,0.5-1.8,1.4-2.1,2.5c-1.4,4.9-2.5,9.9-3.6,14.9c-0.4,1.7,0.8,3.3,2.5,3.8    c1.5,0.4,3.2-0.4,3.6-2c1.3-5.1,2.5-10.3,3.6-15.5C816.7,647.1,815,645.3,812.2,645.4z"></path>
		<path class="st0" d="M895.5,613.2c0.7,5.3,1.4,10.6,2.1,15.9c0.5,3.5,0.9,7,1.4,10.5c0.1,0.5,0.1,1.1,0.3,1.6    c0.5,1.7,2,2.7,3.6,2.4c1.7-0.4,2.9-1.8,2.6-3.7c-0.9-6.8-1.8-13.7-2.8-20.5c-0.3-2.3-0.6-4.6-1-6.9c-0.3-1.9-1.8-3.1-3.4-2.9    C896.6,609.7,895.4,611.2,895.5,613.2z"></path>
	</g>
	<g>
		<path class="st0" d="M328.2,325.7c-0.1,0-0.2-0.1-0.3-0.1c-5.2,0.5-10.1-3.1-11.2-8.5c-0.1-0.4-0.3-0.8-0.6-1    c-3.5-1.9-6.9-3.8-10.5-5.8c-1.3,2.3-2.5,4.5-3.7,6.8c-0.9,1.6-1.8,1.8-3.4,1c-0.3-0.2-0.6-0.4-1-0.5    c-19.8-10.9-39.5-21.7-59.3-32.6c-0.8-0.5-1.5-0.7-2.5-0.2c-1.6,0.9-3.7,0.1-4.7-1.5c-1-1.7-1.9-3.6-2.8-5.4    c-0.7-1.4-0.3-2.5,0.8-3.1c1.1-0.5,2.3,0,3,1.3c0.8,1.4,1.5,2.8,2.2,4.1c4.5-8.2,9-16.3,13.4-24.4c-0.1,0-0.3-0.1-0.5,0    c-4.6,0.4-9.3,1-13.9,1c-3,0-4.5,1.3-5.9,3.8c-1.4,2.5-1.7,4.4,0.1,6.7c0.9,1.3,0.6,2.6-0.5,3.2c-1.2,0.7-2.5,0.3-3.1-1.3    c-1.2-3.1-3.5-5-6.4-6.2c-0.4-0.2-0.7-0.4-1.1-0.6c-2-1.1-2.5-2.8-1.4-4.8c1.1-2.1,2.3-4.2,3.5-6.3c1.1-1.9,2.7-2.4,4.7-1.4    c1.5,0.8,2.9,1.6,4.4,2.4c0.7,0.3,1.6,0.5,2.3,0.5c1.5,0,3-0.2,4.5-0.4c4.7-0.4,9.4-0.8,14-1.1c2.4-0.2,3.9,1.2,4.3,3.5    c0.1,0.5,0.5,1.1,0.9,1.3c2.2,1.3,4.4,2.5,6.7,3.7c10.4,5.7,20.8,11.4,31.2,17.2c1.5,0.8,1.9,1.9,1.2,3.1    c-0.6,1.1-1.9,1.3-3.3,0.5c-0.8-0.4-1.6-0.9-2.2-1.3c-3.9,7.2-7.7,14.1-11.5,21c7.8,4.2,15.8,8.5,23.5,12.7    c3.7-6.8,7.5-13.8,11.4-20.8c-0.3-0.2-0.6-0.4-1-0.6c-3.9-2.1-7.8-4.3-11.6-6.4c-1-0.5-1.7-1.2-1.4-2.4c0.3-1.6,1.8-2.2,3.4-1.3    c4.8,2.6,9.5,5.2,14.3,7.9c1.6,0.9,1.8,1.8,1,3.4c-1.2,2.2-2.4,4.4-3.7,6.7c3.1,1.7,6.2,3.3,9.2,5c1.2,0.7,2.2,0.8,3.5,0.4    c4.9-1.5,10,0.7,12.3,5.4c2.2,4.2,0.9,9.7-3,12.7c-0.6,0.5-1.2,0.9-1.8,1.3C330.5,325.1,329.4,325.4,328.2,325.7z M258.2,263.9    c-2.4-1.3-4.9-2.6-7.3-3.9c-3.7,6.7-7.5,13.7-11.3,20.7c2.3,1.2,4.8,2.6,7.2,3.9C250.6,277.8,254.4,270.8,258.2,263.9z     M255.5,289.4c3.8-6.9,7.6-13.8,11.3-20.7c-1.4-0.8-3.1-1.6-4.6-2.5c-3.7,6.7-7.5,13.7-11.3,20.7    C252.4,287.8,254,288.6,255.5,289.4z M271.6,298.3c3.8-6.9,7.6-13.8,11.4-20.8c-1.5-0.8-3.2-1.6-4.7-2.3    c-3.7,6.8-7.5,13.7-11.3,20.6C268.5,296.6,270.1,297.5,271.6,298.3z M325.3,309.3c-3.3,0.9-5.2,4.5-4.2,7.8c1,3.3,4.6,5.2,7.8,4.1    c3.2-1,5.1-4.5,4.1-7.7C332.1,310.3,328.5,308.4,325.3,309.3z M262.7,293.4c3.8-6.9,7.6-13.9,11.4-20.8c-0.9-0.5-2.1-1.2-3.1-1.8    c-3.8,7-7.7,14-11.5,21C260.6,292.3,261.7,292.9,262.7,293.4z M307.9,306.5c3.1,1.7,6.2,3.4,9.3,5.1c0.4-0.9,0.8-1.9,1.2-2.9    c-2.7-1.5-5.8-3.2-8.9-4.9C309,304.7,308.4,305.7,307.9,306.5z M222.3,260.8c0.8-1.6,1.7-3.2,2.6-4.9c-1-0.5-2.1-1-3.3-1.6    c-0.7,1.5-1.6,3.1-2.4,4.8C220.1,259.7,221.2,260.3,222.3,260.8z"></path>
		<path class="st0" d="M166.9,235.5c1.3,1.8,2.5,3.7,4,5.4c4.7,5.6,11.1,8,18.1,9.2c3,0.5,6.1,0.9,9.1,1.5c4,0.7,7.9,1.5,11.9,2.3    c1,0.2,2,0.4,3,0.5c1,0.2,1.8-0.3,2.3-1.2c0.5-1,0.4-2-0.4-2.7c-1.2-1-2.5-2-3.9-2.8c-4.2-2.3-7.9-5.2-11.1-8.7    c-2.5-2.8-5.1-5.4-7.7-8.1c-0.8-0.8-1.7-1.6-2.6-2.2c-0.9-0.7-1.9-0.6-2.7,0.3c-0.8,0.8-0.7,2,0.1,2.9c4.2,4.3,8.4,8.6,12.7,12.9    c1.1,1.1,2.3,2,3.5,3.2c-0.5,0-0.8,0-1.1,0c-5.8-1-11.6-1.8-17.4-3.1c-6.3-1.5-10.8-5.6-13.8-11.3c-1.8-3.3-0.3-5.7,3.4-5.8    c1.7,0,3.5,0.3,5.2,0.6c1.7,0.3,2.8-0.1,3.1-1.4c0.4-1.3-0.4-2.3-2.1-2.7c-2.9-0.8-5.9-1.2-8.9-0.4c-3.8,1.1-5.6,3.6-5.7,7.5    c0,0.2-0.1,0.4-0.1,0.5C166.2,233.1,166.6,234.3,166.9,235.5z"></path>
		<path class="st0" d="M175.3,264.2c0-3.1,1.1-5.9,3.5-7.9c2.8-2.3,6-3.6,9.6-3.8c6.2-0.3,12,1.2,17.8,3.2c2.1,0.8,2.9,1.7,2.7,3    c-0.2,1.4-1.2,2.1-3.5,2.3c-4.8,0.4-9,2.3-12.6,5.6c-1.9,1.7-3.9,3.3-6.1,4.7c-3.9,2.4-7.2,1.5-9.6-2.4c-0.3-0.4-0.6-0.8-0.8-1.2    C176,266.6,175.6,265.4,175.3,264.2z M183,258.5c-2,1.2-3.8,2.7-3.3,5.2c0.3,1.5,1.2,2.8,2,4.1c0.2,0.3,1.2,0.5,1.6,0.3    c1.4-0.6,2.7-1.3,3.9-2.2c2.7-2,5.2-4.2,7.9-6.2c1.1-0.8,2.4-1.2,3.9-1.9C193.5,256.7,188.2,255.6,183,258.5z"></path>
		<path class="st0" d="M210.9,219c0.7,1.5,0.7,3.4,0.9,5.1c0.2,2.2,0.2,4.5,0.5,6.7c0.5,3.8,2.7,6.7,5,9.5c1.5,1.8,1.6,3.4,0.7,4.5    c-0.9,1.2-2.4,1.4-4.6,0.4c-5.5-2.5-10.6-5.8-14.6-10.5c-2.4-2.8-4-6-4-9.7c-0.1-4.8,2.6-8.8,6.6-10    C205.4,213.9,209.4,215.4,210.9,219z M207.6,223.7c0-0.1,0-0.3,0-0.4c-0.1-2.6-0.9-3.9-2.9-4.2c-2.2-0.4-4.2,0.6-5.1,2.8    c-1.1,2.5-0.8,4.9,0.3,7.2c2.4,4.6,6.5,7.5,10.8,10.1C208,234.3,207.4,229.1,207.6,223.7z"></path>
	</g>
</g>
</svg>